<?xml version="1.0" standalone="no"?>
<!DOCTYPE svg PUBLIC "-//W3C//DTD SVG 20010904//EN"
 "http://www.w3.org/TR/2001/REC-SVG-20010904/DTD/svg10.dtd">
<svg version="1.0" xmlns="http://www.w3.org/2000/svg"
 width="500.000000pt" height="500.000000pt" viewBox="0 0 500.000000 500.000000"
 preserveAspectRatio="xMidYMid meet">

<g transform="translate(0.000000,500.000000) scale(0.100000,-0.100000)"
fill="#5e17eb" stroke="none">
<path d="M830 4590 l0 -410 -415 0 -415 0 0 -2090 0 -2090 2110 0 2110 0 0
410 0 410 390 0 390 0 0 2090 0 2090 -2085 0 -2085 0 0 -410z m3980 -1680 l0
-1850 -295 0 -295 0 0 1560 0 1560 -1575 0 -1575 0 0 290 0 290 1870 0 1870 0
0 -1850z m-910 -820 l0 -1780 -1790 0 -1790 0 0 1780 0 1780 1790 0 1790 0 0
-1780z"/>
<path d="M830 2280 l0 -1460 1470 0 1470 0 0 120 0 120 -1350 0 -1350 0 0
1340 0 1340 -120 0 -120 0 0 -1460z"/>
<path d="M2305 3066 c-66 -30 -95 -84 -95 -177 l0 -59 133 0 c126 0 157 -6
157 -31 0 -5 -108 -9 -239 -11 -267 -3 -268 -4 -319 -79 -22 -33 -23 -40 -20
-216 3 -165 5 -184 24 -209 40 -54 70 -68 150 -72 l74 -4 0 96 c0 114 13 152
66 192 l37 29 201 5 c189 5 203 6 239 29 21 12 47 41 58 63 18 36 20 55 17
198 -3 173 -7 186 -72 234 -25 19 -43 21 -204 23 -133 2 -185 -1 -207 -11z
m60 -121 c0 -38 -2 -40 -30 -40 -23 0 -32 6 -39 27 -12 35 7 60 43 56 23 -3
26 -7 26 -43z"/>
<path d="M2828 2682 c-3 -119 -12 -142 -72 -186 -25 -19 -45 -21 -229 -26
-190 -5 -204 -6 -240 -29 -21 -12 -47 -41 -58 -63 -18 -36 -20 -55 -17 -198 3
-173 7 -186 72 -234 25 -20 41 -21 216 -21 175 0 191 1 216 21 54 40 68 70 72
150 l4 74 -134 0 c-127 0 -158 6 -158 31 0 5 108 9 239 11 263 3 264 4 315 72
20 25 21 41 21 216 0 175 -1 191 -21 216 -40 54 -70 68 -149 72 l-73 4 -4
-110z m-126 -608 c16 -34 0 -59 -38 -59 -24 0 -30 5 -32 28 -5 42 4 57 33 57
18 0 29 -8 37 -26z"/>
</g>
</svg>
